<svg width="12" height="12" viewBox="0 0 12 12" fill="none" xmlns="http://www.w3.org/2000/svg">
    <g clip-path="url(#clip0_3464_8492)">
        <path d="M6 8C7.10457 8 8 7.10457 8 6C8 4.89543 7.10457 4 6 4C4.89543 4 4 4.89543 4 6C4 7.10457 4.89543 8 6 8Z"
              stroke="#C7CB1D" stroke-linecap="round" stroke-linejoin="round"/>
        <path d="M8 3.99993V6.49993C8 6.89776 8.15804 7.27929 8.43934 7.56059C8.72065 7.8419 9.10218 7.99993 9.5 7.99993C9.89783 7.99993 10.2794 7.8419 10.5607 7.56059C10.842 7.27929 11 6.89776 11 6.49993V5.99993C10.9999 4.87145 10.6181 3.77617 9.91664 2.8922C9.21516 2.00823 8.23528 1.38755 7.13632 1.13108C6.03737 0.874619 4.88397 0.997455 3.86368 1.47962C2.84339 1.96178 2.0162 2.77491 1.51663 3.7868C1.01706 4.79868 0.874488 5.9498 1.11209 7.05299C1.34969 8.15618 1.95349 9.14655 2.82532 9.86307C3.69715 10.5796 4.78572 10.9801 5.91404 10.9995C7.04236 11.0189 8.14406 10.6561 9.04 9.96993"
              stroke="#C7CB1D" stroke-linecap="round" stroke-linejoin="round"/>
    </g>
    <defs>
        <clipPath id="clip0_3464_8492">
            <rect width="12" height="12" fill="white"/>
        </clipPath>
    </defs>
</svg>
