<svg width="1440" height="192" viewBox="0 0 1440 192" fill="none" xmlns="http://www.w3.org/2000/svg">
<g clip-path="url(#clip0_3351_14109)">
<g filter="url(#filter0_bd_3351_14109)">
<mask id="path-1-inside-1_3351_14109" fill="white">
<path fill-rule="evenodd" clip-rule="evenodd" d="M1440 0H42L0 45V192H1440V156V29V0ZM1301 46H441V142H1301V46Z"/>
</mask>
<path fill-rule="evenodd" clip-rule="evenodd" d="M1440 0H42L0 45V192H1440V156V29V0ZM1301 46H441V142H1301V46Z" fill="#181717"/>
<path d="M42 0V-2H41.1309L40.5379 -1.36464L42 0ZM1440 0H1442V-2H1440V0ZM0 45L-1.46211 43.6354L-2 44.2117V45H0ZM0 192H-2V194H0V192ZM1440 192V194H1442V192H1440ZM441 46V44H439V46H441ZM1301 46H1303V44H1301V46ZM441 142H439V144H441V142ZM1301 142V144H1303V142H1301ZM42 2H1440V-2H42V2ZM1.46211 46.3646L43.4621 1.36464L40.5379 -1.36464L-1.46211 43.6354L1.46211 46.3646ZM2 192V45H-2V192H2ZM1440 190H0V194H1440V190ZM1438 156V192H1442V156H1438ZM1438 29V156H1442V29H1438ZM1438 0V29H1442V0H1438ZM441 48H1301V44H441V48ZM443 142V46H439V142H443ZM1301 140H441V144H1301V140ZM1299 46V142H1303V46H1299Z" fill="#595959" mask="url(#path-1-inside-1_3351_14109)"/>
</g>
</g>
<defs>
<filter id="filter0_bd_3351_14109" x="-20" y="-20" width="1480" height="232" filterUnits="userSpaceOnUse" color-interpolation-filters="sRGB">
<feFlood flood-opacity="0" result="BackgroundImageFix"/>
<feGaussianBlur in="BackgroundImageFix" stdDeviation="10"/>
<feComposite in2="SourceAlpha" operator="in" result="effect1_backgroundBlur_3351_14109"/>
<feColorMatrix in="SourceAlpha" type="matrix" values="0 0 0 0 0 0 0 0 0 0 0 0 0 0 0 0 0 0 127 0" result="hardAlpha"/>
<feOffset/>
<feGaussianBlur stdDeviation="1"/>
<feColorMatrix type="matrix" values="0 0 0 0 0 0 0 0 0 0 0 0 0 0 0 0 0 0 0.14 0"/>
<feBlend mode="normal" in2="effect1_backgroundBlur_3351_14109" result="effect2_dropShadow_3351_14109"/>
<feBlend mode="normal" in="SourceGraphic" in2="effect2_dropShadow_3351_14109" result="shape"/>
</filter>
<clipPath id="clip0_3351_14109">
<rect width="1440" height="192" fill="white"/>
</clipPath>
</defs>
</svg>
