<svg width="576" height="190" viewBox="0 0 576 190" fill="none" xmlns="http://www.w3.org/2000/svg">
<mask id="path-1-inside-1_3380_22128" fill="white">
<path fill-rule="evenodd" clip-rule="evenodd" d="M576 0H23.2941L0 23.5238V190H576V23.5238V0ZM551.87 92.6538H24.5763V150.654H551.87V92.6538Z"/>
</mask>
<path fill-rule="evenodd" clip-rule="evenodd" d="M576 0H23.2941L0 23.5238V190H576V23.5238V0ZM551.87 92.6538H24.5763V150.654H551.87V92.6538Z" fill="#181717"/>
<path d="M23.2941 0V-1H22.877L22.5836 -0.703629L23.2941 0ZM576 0H577V-1H576V0ZM0 23.5238L-0.710567 22.8202L-1 23.1125V23.5238H0ZM0 190H-1V191H0V190ZM576 190V191H577V190H576ZM24.5763 92.6538V91.6538H23.5763V92.6538H24.5763ZM551.87 92.6538H552.87V91.6538H551.87V92.6538ZM24.5763 150.654H23.5763V151.654H24.5763V150.654ZM551.87 150.654V151.654H552.87V150.654H551.87ZM23.2941 1H576V-1H23.2941V1ZM0.710567 24.2274L24.0047 0.703629L22.5836 -0.703629L-0.710567 22.8202L0.710567 24.2274ZM1 190V23.5238H-1V190H1ZM576 189H0V191H576V189ZM575 23.5238V190H577V23.5238H575ZM575 0V23.5238H577V0H575ZM24.5763 93.6538H551.87V91.6538H24.5763V93.6538ZM25.5763 150.654V92.6538H23.5763V150.654H25.5763ZM551.87 149.654H24.5763V151.654H551.87V149.654ZM550.87 92.6538V150.654H552.87V92.6538H550.87Z" fill="#595959" mask="url(#path-1-inside-1_3380_22128)"/>
</svg>
