<svg width="45" height="45" viewBox="0 0 45 45" fill="none" xmlns="http://www.w3.org/2000/svg">
<g clip-path="url(#clip0_1010_62502)">
<path d="M41.6463 18.8166C41.6036 18.7719 41.5563 18.7319 41.5116 18.6898C41.2363 18.6898 40.967 18.6898 40.6969 18.6898C35.0746 18.697 29.4522 18.7049 23.8298 18.7115C18.0964 18.7187 12.3637 18.726 6.63031 18.7325C6.05612 18.7332 5.48258 18.7325 4.90839 18.7352C4.84203 18.7352 4.76977 18.7141 4.70604 18.77C4.7021 18.7943 4.69421 18.8206 4.69421 18.8475C4.69487 19.2765 4.69618 19.7048 4.69947 20.1338C4.69947 20.1726 4.71721 20.2107 4.72969 20.26C4.81904 20.262 4.90116 20.2659 4.98328 20.2659C9.56172 20.2613 14.1395 20.256 18.7179 20.2508C23.1788 20.2455 27.639 20.2409 32.0998 20.2344C34.9701 20.2304 37.8398 20.2238 40.7101 20.2193C40.9591 20.2193 41.2081 20.2179 41.4571 20.2238C41.5681 20.2265 41.6404 20.1772 41.6962 20.0898C41.7415 20.0189 41.777 19.944 41.7783 19.8579C41.7803 19.6161 41.7836 19.3737 41.7823 19.132C41.7823 19.0091 41.7317 18.9033 41.6476 18.8153L41.6463 18.8166Z" fill="#BCBCBC"/>
<path d="M31.9914 15.5246C25.7337 15.5311 19.4761 15.5371 13.2184 15.541C13.0785 15.541 12.9451 15.5601 12.8111 15.5995C11.4518 15.9969 10.0919 16.3924 8.73259 16.7886C8.43499 16.8753 8.13803 16.964 7.84043 17.0514C7.84043 17.0645 7.83977 17.077 7.83911 17.0901C7.89955 17.0901 7.95999 17.0901 8.01978 17.0901C9.23649 17.0875 10.4539 17.0855 11.6706 17.0829C13.5791 17.079 15.4876 17.0731 17.3954 17.0704C24.3377 17.0632 31.2799 17.0573 38.2214 17.0507C38.9126 17.0501 39.6044 17.0501 40.2955 17.0474C40.3691 17.0474 40.4473 17.0665 40.5228 17.0152C40.5248 16.9916 40.5327 16.9633 40.5281 16.9384C40.4387 16.4844 40.3487 16.0304 40.2567 15.5771C40.2528 15.5587 40.2351 15.543 40.214 15.5127C40.147 15.5108 40.0721 15.5068 39.9972 15.5068C39.4093 15.5081 38.8219 15.5108 38.2339 15.5121C36.1526 15.5167 34.0714 15.5226 31.9901 15.5246H31.9914Z" fill="#BCBCBC"/>
<path d="M6.9325 21.9516C7.92255 22.288 9.58206 22.7446 12.1771 23.1756C12.2651 23.2754 12.3479 23.37 12.3932 23.4206C12.4767 23.4325 12.5601 23.439 12.6455 23.439C15.1282 23.4325 17.6103 23.4272 20.093 23.4239C23.91 23.418 27.727 23.4134 31.544 23.4088C34.0267 23.4062 36.5087 23.4042 38.9914 23.4016C39.0735 23.4016 39.155 23.399 39.2286 23.3976C39.3127 23.2308 39.6569 22.0824 39.6806 21.8991C39.6622 21.8932 39.6438 21.8813 39.6247 21.8813C28.7282 21.8827 17.8317 21.8886 6.9325 21.951V21.9516Z" fill="#BCBCBC"/>
<path d="M14.2373 13.8972C22.6518 13.8861 31.0657 13.8742 39.5012 13.8624C39.5268 13.6377 39.5327 13.438 39.5012 13.2409C39.4447 12.8921 39.1622 12.6529 38.8094 12.6457C38.6852 12.6431 38.5604 12.649 38.4362 12.649C36.7905 12.6529 35.1448 12.6582 33.4998 12.6595C28.0929 12.6654 22.686 12.6707 17.2785 12.6759C16.5177 12.6766 15.7576 12.6785 14.9968 12.6766C14.8687 12.6766 14.7485 12.6969 14.6401 12.7653C14.4903 12.8599 14.3727 12.9847 14.3142 13.1555C14.2649 13.2994 14.2183 13.4439 14.1756 13.5898C14.1486 13.6824 14.1329 13.777 14.1585 13.8795C14.1861 13.8854 14.2124 13.8966 14.2386 13.8966L14.2373 13.8972Z" fill="#BCBCBC"/>
<path d="M11.1719 29.5168L10.3619 29.6698C10.3534 29.6863 10.3442 29.702 10.3356 29.7184C10.3271 29.7349 10.3304 29.7579 10.3264 29.7881C10.3704 29.7914 10.4099 29.7966 10.4499 29.7966C14.7288 29.7907 19.0076 29.7841 23.2872 29.7763C23.299 29.7763 23.3102 29.7631 23.322 29.7559C23.3266 29.7434 23.3371 29.7296 23.3358 29.7178C23.2793 29.2658 23.2221 28.8131 23.163 28.3611C23.1597 28.3349 23.1446 28.3099 23.1328 28.2797C23.0993 28.2731 23.0658 28.2606 23.0329 28.2606C19.3263 28.2639 15.619 28.2685 11.9064 28.2731C11.7015 28.5109 11.5267 28.7763 11.3894 29.0628L11.1719 29.5168Z" fill="#BCBCBC"/>
<path d="M8.73647 32.9822C9.24759 32.9789 9.75938 32.9724 10.2705 32.9711C10.5885 32.9704 10.9064 32.9803 11.2238 32.9796C13.2282 32.9757 15.2326 32.9704 17.237 32.9658C18.2185 32.9638 19.2001 32.9625 20.1816 32.9599C20.263 32.9599 20.3471 32.9743 20.4227 32.9376C20.65 32.6117 21.2584 31.6164 21.3339 31.437C21.2143 31.4364 21.1191 31.4351 21.0238 31.4351C18.0865 31.4403 15.1485 31.4449 12.2112 31.4502C11.2645 31.4521 10.3171 31.4535 9.37045 31.4561C9.28898 31.4561 9.20555 31.4443 9.12474 31.4771C9.10963 31.5034 9.09386 31.5264 9.08335 31.5513C8.96312 31.8371 8.84421 32.1229 8.72464 32.4087L8.68457 32.9809C8.70165 32.9809 8.71873 32.9809 8.73581 32.9809L8.73647 32.9822Z" fill="#BCBCBC"/>
<path d="M8.32463 34.7016L8.33383 34.7634C8.35419 34.898 8.38901 35.0301 8.43763 35.1562L8.70567 35.85C8.751 35.9683 8.81079 36.0793 8.88306 36.1831C10.9578 36.1956 18.3467 36.1837 18.4978 36.1627C18.509 36.1437 18.5261 36.122 18.5359 36.097C18.7225 35.6358 18.9078 35.1746 19.0924 34.7128C19.1016 34.6898 19.097 34.6615 19.0996 34.6215C19.0004 34.6215 18.9111 34.6215 18.8217 34.6215C16.161 34.6234 13.5003 34.6261 10.8395 34.628C9.99465 34.6287 9.14913 34.6293 8.30426 34.6307L8.30164 34.699L8.32463 34.701V34.7016Z" fill="#BCBCBC"/>
<path d="M13.1027 26.1931C13.0521 26.333 13.0048 26.446 12.9956 26.467L12.9904 26.4782C12.97 26.5222 12.9477 26.5662 12.9247 26.6096C16.2647 26.6069 19.6061 26.6043 22.9718 26.601C23.0572 26.0879 23.1367 25.5985 23.203 25.1143C23.1846 25.1005 23.1794 25.0953 23.1734 25.0926C23.161 25.0874 23.1478 25.0821 23.1347 25.0808C23.1071 25.0782 23.0795 25.0775 23.0519 25.0775C19.7723 25.0821 16.4927 25.0867 13.2124 25.092C13.217 25.1327 13.221 25.1741 13.2236 25.2155C13.2302 25.3889 13.2229 25.7424 13.1021 26.1931H13.1027Z" fill="#BCBCBC"/>
<path d="M22.0179 31.4377C22.0166 31.4476 22.0146 31.4568 22.0133 31.4666C22.0422 31.4778 22.0705 31.4916 22.1007 31.5001C23.2149 31.8102 24.3515 32.0054 25.4959 32.1597C26.0024 32.2281 26.5109 32.2852 27.0194 32.3391C27.4386 32.3838 27.8584 32.4186 28.2789 32.4528C28.5817 32.4771 28.8852 32.4981 29.1894 32.5112C29.7347 32.5342 30.2806 32.5566 30.8259 32.5658C31.2195 32.5723 31.6136 32.5612 32.0072 32.55C32.4145 32.5382 32.8225 32.525 33.2291 32.4968C33.9328 32.4482 34.4656 32.0993 34.867 31.5323C34.8847 31.5074 34.89 31.4732 34.9044 31.4344C30.6499 31.4344 26.4124 31.4344 22.1743 31.4344C22.1224 31.4344 22.0705 31.4364 22.0186 31.4377H22.0179Z" fill="#BCBCBC"/>
<path d="M36.9574 25.0599C35.4996 25.0612 34.0418 25.0644 32.584 25.0671C32.5353 25.0671 32.4867 25.0644 32.4388 25.0697C32.4007 25.0743 32.3632 25.0894 32.3126 25.1032C32.3612 25.5716 32.4092 26.0315 32.4578 26.4907C32.4604 26.517 32.4749 26.5413 32.4933 26.5926C32.5813 26.5926 32.6569 26.5926 32.7324 26.5926C33.2232 26.5926 33.7133 26.5926 34.204 26.5919C35.0121 26.5913 35.8209 26.5899 36.6289 26.588C36.6959 26.588 36.7676 26.6031 36.8444 26.5485C36.9633 26.0729 37.0829 25.5861 37.1893 25.0993C37.1092 25.0408 37.031 25.0599 36.9568 25.0599H36.9574Z" fill="#BCBCBC"/>
<path d="M35.6336 28.239C35.0213 28.216 32.4696 28.2331 32.2916 28.2613C32.2791 28.2902 32.2607 28.3204 32.2535 28.3533C32.1536 28.7843 32.0544 29.2146 31.9565 29.6462C31.9493 29.6771 31.9559 29.7106 31.9559 29.7513C32.015 29.7572 32.0623 29.7651 32.1096 29.7658C33.0208 29.7862 35.1678 29.7717 35.3669 29.7435C35.3761 29.7277 35.3912 29.7113 35.3958 29.6922C35.5101 29.2363 35.6231 28.7803 35.7354 28.3244C35.74 28.306 35.7341 28.285 35.7328 28.2554C35.6986 28.2495 35.6664 28.241 35.6336 28.2396V28.239Z" fill="#BCBCBC"/>
<path d="M24.2943 25.0914C24.2759 25.0934 24.2595 25.1091 24.2424 25.1183C24.3075 25.2661 25.0788 26.4231 25.2377 26.609C25.3829 26.609 25.5406 26.6149 25.6983 26.609C25.8592 26.6037 26.0241 26.6359 26.1825 26.5847C26.1549 26.2759 25.946 25.2491 25.8822 25.1039C25.7692 25.0881 24.4343 25.075 24.2937 25.0907L24.2943 25.0914Z" fill="#BCBCBC"/>
<path d="M4.40706 18.7667C4.38669 18.7529 4.38078 18.7456 4.37553 18.7456C4.07266 18.7424 3.7698 18.7397 3.46693 18.7365C3.41306 18.7365 3.37627 18.7634 3.34211 18.7989C3.24816 18.8974 3.19495 19.0137 3.19495 19.1517C3.19495 19.3652 3.1956 19.5787 3.19495 19.7922C3.19495 19.9302 3.25145 20.0445 3.33948 20.147C3.41043 20.2297 3.4919 20.2751 3.60752 20.2705C3.82104 20.2626 4.03456 20.2685 4.24807 20.2665C4.29537 20.2665 4.34268 20.258 4.42086 20.2501C4.42414 19.9854 4.4248 19.7383 4.42086 19.492C4.41626 19.2463 4.43728 18.9999 4.4064 18.7667H4.40706Z" fill="#BCBCBC"/>
<path d="M27.0555 29.7788C27.3091 29.8031 27.8078 29.7972 27.9668 29.7657C27.8873 29.5798 27.7611 29.4254 27.6573 29.2585C27.5555 29.0943 27.4491 28.9333 27.3433 28.7724C27.2342 28.6061 27.1344 28.434 27.0194 28.2829C26.756 28.2566 26.2113 28.2632 26.051 28.2947C26.0674 28.3269 26.0799 28.3572 26.0977 28.3847C26.4538 28.9484 26.9314 29.6428 27.0562 29.7788H27.0555Z" fill="#BCBCBC"/>
</g>
<defs>
<clipPath id="clip0_1010_62502">
<rect width="45" height="45" fill="#BCBCBC"/>
</clipPath>
</defs>
</svg>
