<svg width="15" height="20" viewBox="0 0 15 20" fill="none" xmlns="http://www.w3.org/2000/svg">
<path fill-rule="evenodd" clip-rule="evenodd" d="M2.267 0.80235L7.98492 0.0196701L7.97767 0.0124236C8.18784 -0.0165645 8.41249 0.00517599 8.61541 0.0776464L14.0724 1.96912C14.6739 2.17929 15.058 2.77355 14.9928 3.41128L13.9202 14.2311C13.884 14.6297 13.6738 14.9921 13.3405 15.224L7.28196 19.4635C6.72393 19.8548 5.96299 19.7824 5.49194 19.2896L0.382773 13.9412C0.100139 13.6514 -0.0303086 13.2528 0.00592665 12.8542L1.07849 2.03435C1.14371 1.39661 1.63651 0.889315 2.267 0.80235ZM7.63701 8.25857C8.08079 7.74958 8.52457 7.24059 8.97016 6.72979V6.72254C9.23831 6.41092 9.72386 6.40367 9.99924 6.70804L11.0356 7.83858C11.3182 8.1502 11.253 8.63576 10.9051 8.87491C9.22381 10.0054 7.63671 11.2809 6.10034 12.5999L5.50608 11.8172C4.97704 11.1142 4.42627 10.4185 3.83926 9.75905C3.57837 9.46192 3.60735 9.0126 3.91173 8.7662L4.34655 8.4111C4.65093 8.1647 5.093 8.22268 5.33215 8.52705C5.49521 8.73722 5.65645 8.94738 5.8177 9.15754C5.97895 9.36771 6.14019 9.57787 6.30325 9.78804C6.74905 9.27701 7.19303 8.76779 7.63701 8.25857Z" fill="#308D8A"/>
</svg>
