<svg width="20" height="19" viewBox="0 0 20 19" fill="none" xmlns="http://www.w3.org/2000/svg">
<path fill-rule="evenodd" clip-rule="evenodd" d="M19.6807 9.44446C20.445 5.88526 16.6973 2.06208 11.3099 0.905153C5.92248 -0.251773 0.935517 1.69566 0.171191 5.25486C-0.593136 8.81406 3.15461 12.6372 8.54201 13.7942C13.9294 14.9511 18.9164 13.0037 19.6807 9.44446ZM12.7989 5.1407C12.5846 4.92641 12.3617 4.75498 12.1046 4.60927C11.916 4.49784 11.7189 4.40355 11.5046 4.32641L11.6931 3.58927C11.7103 3.53784 11.6931 3.47784 11.6674 3.42641C11.6417 3.37498 11.5903 3.34069 11.5389 3.32355L10.7503 3.11784C10.6903 3.10927 10.6389 3.11784 10.5874 3.14355C10.536 3.16927 10.5017 3.2207 10.4846 3.27212L10.2874 4.01784C9.936 3.96641 9.61885 3.96641 9.34457 4.00927C8.94171 4.06927 8.59885 4.20641 8.32457 4.41212C8.04171 4.62641 7.85314 4.91784 7.75885 5.26927C7.63885 5.71498 7.716 6.13498 7.97314 6.49498C8.22171 6.83784 8.63314 7.14641 9.23314 7.42069L10.1846 7.84927C10.4331 7.96069 10.6303 8.07212 10.7589 8.17498C10.8789 8.26069 10.956 8.35498 10.9903 8.43212C11.0246 8.50927 11.0246 8.58641 10.9989 8.67212C10.9646 8.79212 10.9131 8.87784 10.8103 8.94641C10.7074 9.01498 10.5531 9.05784 10.3474 9.07498C10.1246 9.09212 9.85885 9.04927 9.53314 8.96355C9.12171 8.86069 8.78743 8.72355 8.52171 8.57784C8.36742 8.48355 8.23028 8.39784 8.11028 8.30355C8.05028 8.26069 7.96457 8.25212 7.896 8.27784L7.13314 8.6207C7.06457 8.65498 7.02171 8.71498 7.01314 8.78355C7.00457 8.85212 7.03028 8.92927 7.08171 8.97212C7.30457 9.16927 7.58742 9.36641 7.91314 9.54641C8.14457 9.67498 8.41885 9.79498 8.74457 9.89784L8.556 10.6178C8.53028 10.7293 8.59028 10.8493 8.71028 10.8836L9.49885 11.0893H9.55028C9.58457 11.0893 9.62743 11.0807 9.66171 11.0636C9.71314 11.0378 9.74743 10.9864 9.76457 10.935L9.96171 10.1807C10.296 10.215 10.5874 10.215 10.8446 10.1807C11.2389 10.1293 11.5731 10.0093 11.8474 9.81212C12.1303 9.60641 12.3274 9.33212 12.4131 8.98927C12.5246 8.54355 12.4474 8.1407 12.1646 7.78069C11.8989 7.44641 11.4703 7.14641 10.8446 6.85498L9.876 6.41784C9.46457 6.22927 9.29314 6.07498 9.22457 5.98069C9.13885 5.86927 9.11314 5.74927 9.14743 5.60355C9.19885 5.39784 9.336 5.26927 9.576 5.19212C9.84171 5.10641 10.1846 5.11498 10.5874 5.21784C10.9131 5.30355 11.1789 5.40641 11.3931 5.52641C11.496 5.58641 11.5731 5.64641 11.6589 5.71498L11.7446 5.78355C11.8046 5.83498 11.8903 5.84355 11.9674 5.80927L12.7046 5.48355C12.7646 5.45784 12.816 5.39784 12.8246 5.32927C12.8331 5.26069 12.816 5.19212 12.7646 5.1407H12.7989ZM1.24453 10.3778C1.6131 10.8578 2.05024 11.3293 2.55596 11.775V11.7664C6.37024 15.5978 15.1474 16.875 19.1417 12.8721C17.916 15.4093 14.8474 17.6893 10.9988 18.5978C5.62453 19.875 0.781673 17.9893 0.190245 14.3978C-0.0326122 13.0521 0.370245 11.6636 1.24453 10.3778Z" fill="#308D8A"/>
</svg>
