<svg width="24" height="24" viewBox="0 0 24 24" fill="none" xmlns="http://www.w3.org/2000/svg">
<path d="M12 2C17.5228 2 22 6.47715 22 12C22 17.5228 17.5228 22 12 22C6.47715 22 2 17.5228 2 12C2 6.47715 6.47715 2 12 2ZM13.6762 8H10.75C10.3358 8 10 8.33579 10 8.75L10.0068 8.85177C10.0565 9.21785 10.3703 9.5 10.75 9.5H13.4383L9 13.9394C8.7071 14.2323 8.7071 14.7072 9 15.0001C9.29289 15.2929 9.76776 15.2929 10.0607 15.0001L14.4993 10.56L14.5 13.25C14.5 13.6642 14.8358 14 15.25 14L15.3518 13.9932C15.7178 13.9435 16 13.6297 16 13.25L15.9997 10.1349C15.999 9.95048 15.996 9.7804 15.9839 9.63213C15.9665 9.419 15.9266 9.18583 15.8093 8.95552C15.6415 8.62624 15.3738 8.35852 15.0445 8.19074C14.8142 8.07339 14.581 8.03353 14.3679 8.01612C14.1702 8 13.9337 8 13.6762 8Z" fill="white"/>
</svg>
