<svg width="351" height="369" viewBox="0 0 351 369" fill="none" xmlns="http://www.w3.org/2000/svg">
<path d="M1.71093 337.005L53.0991 19.0122C53.547 16.2403 55.4155 13.9061 58.0221 12.8621L85.1842 1.98275C87.8587 0.911517 90.9026 1.3611 93.1532 3.15976L111.455 17.7867C112.83 18.8851 113.804 20.4059 114.227 22.1137L117.406 34.9581C117.829 36.6659 118.803 38.1867 120.177 39.2851L168.054 77.5474C169.536 78.7316 170.548 80.4038 170.912 82.2657L172.613 90.9901C172.976 92.8519 173.989 94.5242 175.47 95.7084L237.053 144.925C238.535 146.109 240.389 146.728 242.285 146.672L251.17 146.408C253.066 146.351 254.921 146.97 256.402 148.155L305.364 187.284C306.922 188.529 308.89 189.148 310.881 189.018L321.495 188.323C323.486 188.193 325.453 188.811 327.012 190.057L346.884 205.939C349.364 207.921 350.438 211.182 349.62 214.25L341.75 243.76C341.098 246.207 339.326 248.2 336.973 249.134L39.5275 367.267C36.8576 368.327 33.8242 367.875 31.5801 366.081L4.61401 344.53C2.35992 342.729 1.25059 339.853 1.71093 337.005Z" stroke="#595959" stroke-width="2"/>
</svg>
